<svg xmlns="http://www.w3.org/2000/svg" width="1387" height="330" viewBox="0 0 1387 330" fill="none"><rect width="1387" height="330" rx="50" fill="#8576EE"></rect><mask id="mask0_114_133" style="mask-type:alpha" maskUnits="userSpaceOnUse" x="0" y="0" width="1387" height="330"><rect width="1387" height="330" rx="50" fill="#8576EE"></rect></mask><g mask="url(#mask0_114_133)"><path fill-rule="evenodd" clip-rule="evenodd" d="M-16.2886 -453.934C52.4216 -462.72 120.289 -415.796 167.783 -365.372C211.217 -319.26 196.367 -242.245 232.264 -190.052C272.828 -131.074 354.567 -110.328 387.064 -46.5496C428.367 34.5124 481.906 136.107 439.449 216.57C397.457 296.151 274.48 277.33 194.456 318.47C119.396 357.058 63.6452 477.948 -16.2886 450.863C-109.111 419.412 -74.9284 250.913 -158.069 199.022C-236.402 150.131 -378.49 268.914 -430.285 192.471C-480.007 119.086 -341.502 40.4401 -324.458 -46.5496C-311.961 -110.334 -377.171 -179.878 -346.14 -236.989C-315.244 -293.853 -229.119 -285.97 -175.049 -321.531C-116.479 -360.053 -85.8252 -445.041 -16.2886 -453.934Z" stroke="url(#paint0_radial_114_133)"></path><path fill-rule="evenodd" clip-rule="evenodd" d="M-13.839 -397.754C46.3704 -405.45 105.841 -364.346 147.46 -320.177C185.52 -279.784 172.507 -212.322 203.963 -166.603C239.508 -114.941 311.135 -96.7685 339.611 -40.9009C375.804 30.1063 422.72 119.099 385.515 189.582C348.718 259.291 240.956 242.806 170.832 278.843C105.059 312.644 56.2054 418.539 -13.839 394.814C-95.1773 367.263 -65.224 219.665 -138.079 174.21C-206.72 131.384 -331.229 235.434 -376.616 168.472C-420.187 104.19 -298.818 35.2987 -283.882 -40.9009C-272.931 -96.7738 -330.074 -157.691 -302.882 -207.719C-275.808 -257.529 -200.338 -250.624 -152.958 -281.774C-101.634 -315.518 -74.7726 -389.964 -13.839 -397.754Z" stroke="url(#paint1_radial_114_133)"></path><path fill-rule="evenodd" clip-rule="evenodd" d="M-9.69497 -331.621C40.4607 -338.037 90.0011 -303.771 124.67 -266.95C156.375 -233.277 145.535 -177.038 171.739 -138.924C201.349 -95.8566 261.015 -80.7071 284.736 -34.1336C314.886 25.0609 353.967 99.2493 322.975 158.007C292.323 216.119 202.554 202.376 144.14 232.418C89.3494 260.596 48.6535 348.874 -9.69497 329.096C-77.4514 306.129 -52.4997 183.085 -113.189 145.192C-170.369 109.49 -274.087 196.23 -311.896 140.408C-348.191 86.8199 -247.088 29.3896 -234.647 -34.1336C-225.524 -80.7115 -273.125 -131.495 -250.473 -173.2C-227.92 -214.724 -165.052 -208.967 -125.584 -234.936C-82.8301 -263.066 -60.4539 -325.127 -9.69497 -331.621Z" stroke="url(#paint2_radial_114_133)"></path><path fill-rule="evenodd" clip-rule="evenodd" d="M-6.24916 -264.018C33.7399 -269.126 73.2383 -241.85 100.88 -212.539C126.158 -185.736 117.515 -140.969 138.407 -110.63C162.015 -76.3479 209.587 -64.2888 228.5 -27.2158C252.538 19.9035 283.698 78.9581 258.988 125.729C234.549 171.988 162.977 161.048 116.403 184.961C72.7187 207.392 40.2719 277.662 -6.24916 261.918C-60.2712 243.636 -40.3773 145.692 -88.7648 115.529C-134.354 87.11 -217.049 156.156 -247.193 111.721C-276.131 69.0642 -195.522 23.3492 -185.602 -27.2158C-178.329 -64.2923 -216.281 -104.716 -198.221 -137.914C-180.24 -170.968 -130.115 -166.385 -98.6472 -187.056C-64.5596 -209.448 -46.7191 -258.85 -6.24916 -264.018Z" stroke="url(#paint3_radial_114_133)"></path><path fill-rule="evenodd" clip-rule="evenodd" d="M-2.58243 -178.78C24.4158 -182.237 51.0828 -163.775 69.7448 -143.935C86.811 -125.792 80.9759 -95.4906 95.0812 -74.9549C111.02 -51.75 143.138 -43.5874 155.907 -18.4935C172.136 13.4007 193.173 53.3736 176.49 85.0322C159.99 116.343 111.669 108.938 80.2251 125.125C50.732 140.308 28.8259 187.872 -2.58243 177.216C-39.0549 164.841 -25.6237 98.5446 -58.2922 78.1276C-89.0713 58.8914 -144.902 105.627 -165.253 75.5502C-184.791 46.6766 -130.368 15.733 -123.671 -18.4935C-118.761 -43.5898 -144.384 -70.952 -132.191 -93.4228C-120.051 -115.796 -86.2095 -112.694 -64.9641 -126.686C-41.9502 -141.843 -29.9053 -175.282 -2.58243 -178.78Z" stroke="url(#paint4_radial_114_133)"></path><path fill-rule="evenodd" clip-rule="evenodd" d="M1.01654 -106.766C17.3962 -108.857 33.5749 -97.6883 44.8971 -85.6866C55.2511 -74.7112 51.7109 -56.3805 60.2685 -43.9577C69.9384 -29.9202 89.4241 -24.9823 97.1709 -9.80203C107.017 9.49197 119.78 33.6731 109.659 52.8246C99.6485 71.7659 70.3321 67.2864 51.2554 77.0784C33.3621 86.2629 20.0718 115.036 1.01654 108.59C-21.1111 101.104 -12.9625 60.9988 -32.7823 48.6478C-51.4558 37.011 -85.3278 65.2833 -97.6751 47.0886C-109.528 29.6218 -76.5105 10.9029 -72.4474 -9.80203C-69.4682 -24.9838 -85.0135 -41.5362 -77.6161 -55.1297C-70.2507 -68.6641 -49.7195 -66.7878 -36.8301 -75.2519C-22.8677 -84.4207 -15.5601 -104.649 1.01654 -106.766Z" stroke="url(#paint5_radial_114_133)"></path><path fill-rule="evenodd" clip-rule="evenodd" d="M3.39115 -62.6805C12.7671 -63.8898 22.028 -57.4316 28.509 -50.4919C34.4358 -44.1456 32.4093 -33.5462 37.3078 -26.363C42.843 -18.246 53.9969 -15.3908 58.4313 -6.61307C64.0673 4.54333 71.3731 18.5256 65.5795 29.5996C59.8494 40.5521 43.0684 37.9619 32.1486 43.6239C21.9062 48.9347 14.2986 65.5724 3.39115 61.8448C-9.27503 57.5162 -4.61063 34.3262 -15.9557 27.1844C-26.6447 20.4557 -46.0336 36.8036 -53.1013 26.2829C-59.8863 16.183 -40.9864 5.35915 -38.6606 -6.61307C-36.9553 -15.3916 -45.8536 -24.9628 -41.6192 -32.8229C-37.4032 -40.649 -25.6509 -39.564 -18.2728 -44.4583C-10.2805 -49.7599 -6.09756 -61.4567 3.39115 -62.6805Z" stroke="url(#paint6_radial_114_133)"></path><path fill-rule="evenodd" clip-rule="evenodd" d="M1397.54 -263.962C1464.45 -272.517 1530.53 -226.826 1576.77 -177.729C1619.07 -132.829 1604.61 -57.8396 1639.56 -7.01887C1679.06 50.4076 1758.65 70.6081 1790.29 132.71C1830.51 211.64 1882.64 310.563 1841.3 388.91C1800.41 466.398 1680.66 448.073 1602.75 488.131C1529.66 525.704 1475.37 643.414 1397.54 617.042C1307.16 586.418 1340.45 422.35 1259.49 371.823C1183.22 324.218 1044.87 439.878 994.434 365.445C946.018 293.99 1080.88 217.412 1097.48 132.71C1109.65 70.6022 1046.15 2.88735 1076.37 -52.7224C1106.45 -108.091 1190.31 -100.415 1242.96 -135.041C1299.99 -172.55 1329.83 -255.303 1397.54 -263.962Z" stroke="url(#paint7_radial_114_133)"></path><path fill-rule="evenodd" clip-rule="evenodd" d="M1399.93 -209.259C1458.55 -216.753 1516.46 -176.73 1556.99 -133.722C1594.04 -94.3922 1581.37 -28.7042 1612 15.8129C1646.61 66.1163 1716.36 83.8111 1744.08 138.21C1779.33 207.35 1825.01 294.002 1788.78 362.632C1752.95 430.508 1648.02 414.455 1579.74 449.545C1515.7 482.458 1468.13 585.567 1399.93 562.466C1320.73 535.64 1349.89 391.924 1278.96 347.664C1212.12 305.964 1090.88 407.277 1046.69 342.077C1004.27 279.485 1122.44 212.405 1136.99 138.21C1147.65 83.8059 1092.01 24.4903 1118.49 -24.2217C1144.85 -72.7224 1218.33 -65.9985 1264.47 -96.3297C1314.44 -129.186 1340.6 -201.675 1399.93 -209.259Z" stroke="url(#paint8_radial_114_133)"></path><path fill-rule="evenodd" clip-rule="evenodd" d="M1403.96 -144.865C1452.8 -151.113 1501.04 -117.748 1534.8 -81.8947C1565.67 -49.1074 1555.11 5.65282 1580.63 42.7641C1609.46 84.6991 1667.55 99.4502 1690.65 144.799C1720.01 202.437 1758.06 274.674 1727.89 331.887C1698.04 388.471 1610.63 375.089 1553.75 404.341C1500.4 431.778 1460.78 517.735 1403.96 498.477C1337.99 476.114 1362.28 356.306 1303.19 319.409C1247.51 284.646 1146.52 369.105 1109.71 314.751C1074.37 262.572 1172.81 206.652 1184.93 144.799C1193.81 99.4459 1147.46 49.998 1169.52 9.38959C1191.48 -31.0426 1252.69 -25.4372 1291.12 -50.7227C1332.75 -78.113 1354.54 -138.543 1403.96 -144.865Z" stroke="url(#paint9_radial_114_133)"></path><path fill-rule="evenodd" clip-rule="evenodd" d="M1407.32 -79.0404C1446.26 -84.0135 1484.72 -57.4547 1511.63 -28.9153C1536.24 -2.81635 1527.83 40.7733 1548.17 70.3142C1571.16 103.695 1617.48 115.437 1635.9 151.535C1659.3 197.415 1689.64 254.917 1665.58 300.458C1641.79 345.5 1572.1 334.848 1526.75 358.133C1484.21 379.973 1452.62 448.395 1407.32 433.066C1354.72 415.264 1374.09 319.896 1326.97 290.526C1282.58 262.854 1202.06 330.085 1172.71 286.818C1144.53 245.283 1223.02 200.77 1232.68 151.535C1239.76 115.433 1202.81 76.0724 1220.4 43.7478C1237.9 11.5634 1286.71 16.0253 1317.35 -4.1021C1350.54 -25.905 1367.91 -74.0076 1407.32 -79.0404Z" stroke="url(#paint10_radial_114_133)"></path><path fill-rule="evenodd" clip-rule="evenodd" d="M1410.89 3.95593C1437.18 0.589776 1463.14 18.5669 1481.31 37.8846C1497.93 55.5505 1492.25 85.0555 1505.98 105.051C1521.5 127.646 1552.78 135.594 1565.21 160.028C1581.01 191.083 1601.5 230.005 1585.25 260.831C1569.19 291.319 1522.13 284.109 1491.52 299.87C1462.8 314.653 1441.47 360.967 1410.89 350.59C1375.37 338.541 1388.45 273.988 1356.64 254.108C1326.67 235.378 1272.31 280.884 1252.49 251.598C1233.47 223.484 1286.46 193.354 1292.98 160.028C1297.76 135.591 1272.82 108.949 1284.69 87.0688C1296.51 65.2839 1329.46 68.304 1350.15 54.6802C1372.56 39.9222 1384.28 7.36256 1410.89 3.95593Z" stroke="url(#paint11_radial_114_133)"></path><path fill-rule="evenodd" clip-rule="evenodd" d="M1414.39 74.0769C1430.34 72.0406 1446.1 82.9156 1457.12 94.6016C1467.2 105.288 1463.76 123.137 1472.09 135.233C1481.5 148.902 1500.48 153.71 1508.02 168.491C1517.61 187.277 1530.03 210.823 1520.18 229.47C1510.43 247.914 1481.89 243.552 1463.31 253.086C1445.89 262.029 1432.95 290.046 1414.39 283.769C1392.85 276.48 1400.78 237.43 1381.48 225.403C1363.3 214.073 1330.32 241.602 1318.3 223.885C1306.76 206.878 1338.91 188.651 1342.86 168.491C1345.76 153.708 1330.63 137.591 1337.83 124.355C1345 111.176 1364.99 113.004 1377.54 104.762C1391.14 95.8343 1398.25 76.1377 1414.39 74.0769Z" stroke="url(#paint12_radial_114_133)"></path><path fill-rule="evenodd" clip-rule="evenodd" d="M1416.71 117.003C1425.83 115.825 1434.85 122.114 1441.16 128.871C1446.93 135.05 1444.96 145.371 1449.73 152.365C1455.12 160.269 1465.98 163.049 1470.3 171.596C1475.79 182.459 1482.9 196.074 1477.26 206.856C1471.68 217.521 1455.34 214.999 1444.71 220.512C1434.73 225.683 1427.33 241.883 1416.71 238.254C1404.37 234.039 1408.91 211.459 1397.87 204.505C1387.46 197.953 1368.58 213.871 1361.7 203.627C1355.09 193.793 1373.49 183.253 1375.76 171.596C1377.42 163.048 1368.76 153.729 1372.88 146.075C1376.98 138.455 1388.43 139.512 1395.61 134.746C1403.39 129.584 1407.47 118.195 1416.71 117.003Z" stroke="url(#paint13_radial_114_133)"></path></g><defs><radialGradient id="paint0_radial_114_133" cx="0" cy="0" r="1" gradientUnits="userSpaceOnUse" gradientTransform="translate(7 -0.110046) rotate(90) scale(454.89 448)"><stop stop-color="white"></stop><stop offset="1" stop-color="white" stop-opacity="0.16"></stop></radialGradient><radialGradient id="paint1_radial_114_133" cx="0" cy="0" r="1" gradientUnits="userSpaceOnUse" gradientTransform="translate(6.56836 -0.221619) rotate(90) scale(398.466 392.574)"><stop stop-color="white"></stop><stop offset="1" stop-color="white" stop-opacity="0.16"></stop></radialGradient><radialGradient id="paint2_radial_114_133" cx="0" cy="0" r="1" gradientUnits="userSpaceOnUse" gradientTransform="translate(7.30481 -0.22168) rotate(90) scale(332.178 327.022)"><stop stop-color="white"></stop><stop offset="1" stop-color="white" stop-opacity="0.16"></stop></radialGradient><radialGradient id="paint3_radial_114_133" cx="0" cy="0" r="1" gradientUnits="userSpaceOnUse" gradientTransform="translate(7.30472 -0.221649) rotate(90) scale(264.417 260.734)"><stop stop-color="white"></stop><stop offset="1" stop-color="white" stop-opacity="0.16"></stop></radialGradient><radialGradient id="paint4_radial_114_133" cx="0" cy="0" r="1" gradientUnits="userSpaceOnUse" gradientTransform="translate(6.56836 -0.221634) rotate(90) scale(178.978 176.032)"><stop stop-color="white"></stop><stop offset="1" stop-color="white" stop-opacity="0.16"></stop></radialGradient><radialGradient id="paint5_radial_114_133" cx="0" cy="0" r="1" gradientUnits="userSpaceOnUse" gradientTransform="translate(6.56827 1.2513) rotate(90) scale(108.271 106.798)"><stop stop-color="white"></stop><stop offset="1" stop-color="white" stop-opacity="0.16"></stop></radialGradient><radialGradient id="paint6_radial_114_133" cx="0" cy="0" r="1" gradientUnits="userSpaceOnUse" gradientTransform="translate(6.56904 -0.221687) rotate(90) scale(62.6056 61.1325)"><stop stop-color="white"></stop><stop offset="1" stop-color="white" stop-opacity="0.16"></stop></radialGradient><radialGradient id="paint7_radial_114_133" cx="0" cy="0" r="1" gradientUnits="userSpaceOnUse" gradientTransform="translate(1420.22 177.928) rotate(90) scale(442.928 436.219)"><stop stop-color="white"></stop><stop offset="1" stop-color="white" stop-opacity="0.16"></stop></radialGradient><radialGradient id="paint8_radial_114_133" cx="0" cy="0" r="1" gradientUnits="userSpaceOnUse" gradientTransform="translate(1419.8 177.819) rotate(90) scale(387.988 382.25)"><stop stop-color="white"></stop><stop offset="1" stop-color="white" stop-opacity="0.16"></stop></radialGradient><radialGradient id="paint9_radial_114_133" cx="0" cy="0" r="1" gradientUnits="userSpaceOnUse" gradientTransform="translate(1420.52 177.819) rotate(90) scale(323.443 318.423)"><stop stop-color="white"></stop><stop offset="1" stop-color="white" stop-opacity="0.16"></stop></radialGradient><radialGradient id="paint10_radial_114_133" cx="0" cy="0" r="1" gradientUnits="userSpaceOnUse" gradientTransform="translate(1420.52 177.819) rotate(90) scale(257.463 253.877)"><stop stop-color="white"></stop><stop offset="1" stop-color="white" stop-opacity="0.16"></stop></radialGradient><radialGradient id="paint11_radial_114_133" cx="0" cy="0" r="1" gradientUnits="userSpaceOnUse" gradientTransform="translate(1419.8 177.819) rotate(90) scale(174.272 171.403)"><stop stop-color="white"></stop><stop offset="1" stop-color="white" stop-opacity="0.16"></stop></radialGradient><radialGradient id="paint12_radial_114_133" cx="0" cy="0" r="1" gradientUnits="userSpaceOnUse" gradientTransform="translate(1419.8 179.253) rotate(90) scale(105.424 103.989)"><stop stop-color="white"></stop><stop offset="1" stop-color="white" stop-opacity="0.16"></stop></radialGradient><radialGradient id="paint13_radial_114_133" cx="0" cy="0" r="1" gradientUnits="userSpaceOnUse" gradientTransform="translate(1419.8 177.819) rotate(90) scale(60.9593 59.5249)"><stop stop-color="white"></stop><stop offset="1" stop-color="white" stop-opacity="0.16"></stop></radialGradient></defs></svg>