<svg xmlns="http://www.w3.org/2000/svg" width="304" height="617" viewBox="0 0 304 617" fill="none"><path fill-rule="evenodd" clip-rule="evenodd" d="M288.063 2.71831C334.343 -3.19978 380.055 28.4061 412.045 62.3689C441.299 93.4275 431.297 145.301 455.475 180.455C482.797 220.179 537.852 234.153 559.74 277.111C587.56 331.71 623.621 400.139 595.024 454.335C566.74 507.936 483.909 495.259 430.01 522.969C379.453 548.96 341.902 630.385 288.063 612.142C225.543 590.958 248.567 477.466 192.567 442.515C139.806 409.585 44.1035 489.591 9.21725 438.103C-24.2733 388.674 69.0164 335.702 80.4963 277.111C88.9139 234.149 44.9916 187.308 65.8925 148.84C86.7028 110.54 144.712 115.85 181.13 91.8975C220.58 65.9512 241.227 8.70756 288.063 2.71831Z" stroke="url(#paint0_radial_1_592)" stroke-width="3"></path><path fill-rule="evenodd" clip-rule="evenodd" d="M289.713 40.5582C330.267 35.3741 370.323 63.0597 398.355 92.8098C423.99 120.016 415.225 165.455 436.413 196.249C460.354 231.046 508.598 243.286 527.778 280.915C552.156 328.742 583.756 388.683 558.697 436.157C533.912 483.109 461.329 472.005 414.098 496.278C369.796 519.045 336.891 590.37 289.713 574.39C234.928 555.833 255.103 456.419 206.031 425.803C159.798 396.957 75.9355 467.04 45.3653 421.938C16.0182 378.641 97.7661 332.239 107.826 280.915C115.202 243.282 76.7137 202.251 95.0288 168.556C113.264 135.006 164.097 139.657 196.009 118.676C230.579 95.9478 248.671 45.8045 289.713 40.5582Z" stroke="url(#paint1_radial_1_592)" stroke-width="3"></path><path fill-rule="evenodd" clip-rule="evenodd" d="M292.504 85.1017C326.286 80.7801 359.654 103.86 383.005 128.661C404.36 151.341 397.058 189.221 414.708 214.892C434.652 243.9 474.84 254.104 490.817 285.473C511.125 325.344 537.448 375.313 516.573 414.889C495.927 454.03 435.464 444.774 396.119 465.008C359.215 483.988 331.804 543.447 292.504 530.126C246.867 514.656 263.673 431.781 222.796 406.258C184.282 382.211 114.423 440.634 88.9574 403.036C64.5106 366.941 132.608 328.259 140.988 285.473C147.133 254.101 115.071 219.896 130.328 191.806C145.519 163.837 187.863 167.715 214.447 150.224C243.244 131.277 258.315 89.4753 292.504 85.1017Z" stroke="url(#paint2_radial_1_592)" stroke-width="3"></path><path fill-rule="evenodd" clip-rule="evenodd" d="M294.825 130.635C321.76 127.195 348.364 145.567 366.982 165.309C384.008 183.362 378.187 213.515 392.258 233.95C408.159 257.04 440.201 265.163 452.94 290.133C469.131 321.87 490.119 361.646 473.475 393.149C457.014 424.306 408.807 416.937 377.437 433.044C348.014 448.152 326.16 495.483 294.825 484.878C258.439 472.565 271.839 406.595 239.247 386.278C208.541 367.137 152.842 413.642 132.538 383.714C113.047 354.982 167.341 324.191 174.022 290.133C178.921 265.16 153.359 237.933 165.523 215.573C177.635 193.309 211.396 196.396 232.591 182.473C255.551 167.391 267.567 134.117 294.825 130.635Z" stroke="url(#paint3_radial_1_592)" stroke-width="3"></path><path fill-rule="evenodd" clip-rule="evenodd" d="M297.295 188.047C315.479 185.719 333.441 198.154 346.011 211.517C357.505 223.737 353.575 244.147 363.076 257.978C373.811 273.608 395.444 279.106 404.045 296.008C414.976 317.49 429.145 344.414 417.908 365.737C406.795 386.827 374.248 381.839 353.07 392.742C333.205 402.968 318.45 435.005 297.295 427.827C272.729 419.492 281.775 374.839 259.772 361.087C239.04 348.13 201.436 379.609 187.728 359.351C174.569 339.903 211.225 319.061 215.736 296.008C219.043 279.104 201.785 260.675 209.997 245.539C218.174 230.47 240.968 232.559 255.278 223.135C270.779 212.926 278.891 190.404 297.295 188.047Z" stroke="url(#paint4_radial_1_592)" stroke-width="3"></path><path fill-rule="evenodd" clip-rule="evenodd" d="M299.719 236.552C310.751 235.144 321.649 242.666 329.275 250.75C336.248 258.143 333.864 270.489 339.628 278.856C346.141 288.311 359.266 291.637 364.483 301.862C371.115 314.857 379.712 331.145 372.895 344.044C366.152 356.802 346.406 353.785 333.557 360.38C321.505 366.566 312.554 385.947 299.719 381.605C284.815 376.562 290.303 349.55 276.954 341.231C264.376 333.393 241.562 352.435 233.245 340.18C225.262 328.416 247.501 315.808 250.237 301.862C252.244 291.636 241.774 280.487 246.756 271.332C251.717 262.216 265.546 263.479 274.227 257.778C283.632 251.603 288.554 237.978 299.719 236.552Z" stroke="url(#paint5_radial_1_592)" stroke-width="3"></path><path fill-rule="evenodd" clip-rule="evenodd" d="M301.318 266.246C307.633 265.431 313.871 269.781 318.236 274.455C322.228 278.73 320.863 285.869 324.163 290.707C327.891 296.175 335.404 298.098 338.39 304.01C342.187 311.524 347.107 320.942 343.205 328.401C339.346 335.778 328.043 334.033 320.688 337.847C313.789 341.424 308.665 352.63 301.318 350.12C292.787 347.204 295.929 331.584 288.287 326.774C281.088 322.242 268.028 333.253 263.268 326.167C258.698 319.364 271.428 312.074 272.994 304.01C274.143 298.097 268.15 291.651 271.002 286.356C273.841 281.085 281.757 281.816 286.727 278.519C292.11 274.948 294.927 267.07 301.318 266.246Z" stroke="url(#paint6_radial_1_592)" stroke-width="3"></path><defs><radialGradient id="paint0_radial_1_592" cx="0" cy="0" r="1" gradientUnits="userSpaceOnUse" gradientTransform="translate(303.749 308.39) rotate(90) scale(306.39 301.749)"><stop stop-color="#8576EE" stop-opacity="0.12"></stop><stop offset="1" stop-color="#8576EE" stop-opacity="0.05"></stop></radialGradient><radialGradient id="paint1_radial_1_592" cx="0" cy="0" r="1" gradientUnits="userSpaceOnUse" gradientTransform="translate(303.458 308.315) rotate(90) scale(268.386 264.417)"><stop stop-color="#8576EE" stop-opacity="0.12"></stop><stop offset="1" stop-color="#8576EE" stop-opacity="0.05"></stop></radialGradient><radialGradient id="paint2_radial_1_592" cx="0" cy="0" r="1" gradientUnits="userSpaceOnUse" gradientTransform="translate(303.954 308.315) rotate(90) scale(223.738 220.265)"><stop stop-color="#8576EE" stop-opacity="0.12"></stop><stop offset="1" stop-color="#8576EE" stop-opacity="0.05"></stop></radialGradient><radialGradient id="paint3_radial_1_592" cx="0" cy="0" r="1" gradientUnits="userSpaceOnUse" gradientTransform="translate(303.955 308.315) rotate(90) scale(178.097 175.617)"><stop stop-color="#8576EE" stop-opacity="0.12"></stop><stop offset="1" stop-color="#8576EE" stop-opacity="0.05"></stop></radialGradient><radialGradient id="paint4_radial_1_592" cx="0" cy="0" r="1" gradientUnits="userSpaceOnUse" gradientTransform="translate(303.458 308.315) rotate(90) scale(120.55 118.566)"><stop stop-color="#8576EE" stop-opacity="0.12"></stop><stop offset="1" stop-color="#8576EE" stop-opacity="0.05"></stop></radialGradient><radialGradient id="paint5_radial_1_592" cx="0" cy="0" r="1" gradientUnits="userSpaceOnUse" gradientTransform="translate(303.458 309.307) rotate(90) scale(72.9255 71.9334)"><stop stop-color="#8576EE" stop-opacity="0.12"></stop><stop offset="1" stop-color="#8576EE" stop-opacity="0.05"></stop></radialGradient><radialGradient id="paint6_radial_1_592" cx="0" cy="0" r="1" gradientUnits="userSpaceOnUse" gradientTransform="translate(303.459 308.315) rotate(90) scale(42.1678 41.1756)"><stop stop-color="#8576EE" stop-opacity="0.12"></stop><stop offset="1" stop-color="#8576EE" stop-opacity="0.05"></stop></radialGradient></defs></svg>